<svg width="64" height="61" viewBox="0 0 64 61" fill="none" xmlns="http://www.w3.org/2000/svg">
<path d="M10 13.2175H54V41.5408C54 42.0416 53.7893 42.5219 53.4142 42.876C53.0391 43.2301 52.5304 43.4291 52 43.4291H42C41.4696 43.4291 40.9609 43.2301 40.5858 42.876C40.2107 42.5219 40 42.0416 40 41.5408V35.8762H24V49.0937C24 49.5945 23.7893 50.0748 23.4142 50.4289C23.0391 50.783 22.5304 50.982 22 50.982H12C11.4696 50.982 10.9609 50.783 10.5858 50.4289C10.2107 50.0748 10 49.5945 10 49.0937V13.2175Z" stroke="#00FFFF" stroke-linecap="round" stroke-linejoin="round"/>
<path d="M24 28.3233H10" stroke="#00FFFF" stroke-linecap="round" stroke-linejoin="round"/>
<path d="M24 13.2175V35.8762" stroke="#00FFFF" stroke-linecap="round" stroke-linejoin="round"/>
<path d="M40 28.3233H54" stroke="#00FFFF" stroke-linecap="round" stroke-linejoin="round"/>
<path d="M40 13.2175V35.8762" stroke="#00FFFF" stroke-linecap="round" stroke-linejoin="round"/>
<g filter="url(#filter0_d_21_2891)">
<circle cx="32" cy="30" r="20" fill="#00FFFF" fill-opacity="0.2" shape-rendering="crispEdges"/>
</g>
<defs>
<filter id="filter0_d_21_2891" x="8" y="10" width="48" height="48" filterUnits="userSpaceOnUse" color-interpolation-filters="sRGB">
<feFlood flood-opacity="0" result="BackgroundImageFix"/>
<feColorMatrix in="SourceAlpha" type="matrix" values="0 0 0 0 0 0 0 0 0 0 0 0 0 0 0 0 0 0 127 0" result="hardAlpha"/>
<feOffset dy="4"/>
<feGaussianBlur stdDeviation="2"/>
<feComposite in2="hardAlpha" operator="out"/>
<feColorMatrix type="matrix" values="0 0 0 0 0 0 0 0 0 0 0 0 0 0 0 0 0 0 0.25 0"/>
<feBlend mode="normal" in2="BackgroundImageFix" result="effect1_dropShadow_21_2891"/>
<feBlend mode="normal" in="SourceGraphic" in2="effect1_dropShadow_21_2891" result="shape"/>
</filter>
</defs>
</svg>
