<svg width="47" height="57" viewBox="0 0 47 57" fill="none" xmlns="http://www.w3.org/2000/svg">
<path d="M1.5 25.1436H47V27.976L5.84341 28.1187L20.5299 40.1297C21.4985 40.8939 21.6454 42.2758 20.8577 43.2157C20.4111 43.7493 19.7595 44.0258 19.1028 44.0258C18.6018 44.0258 18.0971 43.8649 17.6783 43.5342L0.834344 29.8209C0.306723 29.4044 0 28.7791 0 28.1187C0 27.4582 0.5 25.1436 1.5 25.1436Z" fill="white"/>
<path d="M21.551 8.38755L21.3641 41.9333C21.3545 43.0983 20.3737 44.0349 19.1737 44.0255C18.8696 44.0234 18.581 43.9605 18.319 43.8492C17.5476 43.5206 17.0107 42.7697 17.0178 41.8995L17.205 8.35415L19.5 4.3732L21.551 8.38755Z" fill="white"/>
<path d="M31 54.5V4L33 1L35 4V54.5L33 56L31 54.5Z" stroke="white"/>
</svg>
