<svg width="150" height="178" viewBox="0 0 150 178" fill="none" xmlns="http://www.w3.org/2000/svg">
<path d="M4.78723 93H150V102.039L18.6492 102.495L65.5208 140.828C68.6123 143.267 69.0811 147.677 66.567 150.677C65.1417 152.38 63.0623 153.262 60.9663 153.262C59.3674 153.262 57.7567 152.749 56.42 151.693L2.6628 107.928C0.978904 106.598 0 104.603 0 102.495C0 100.387 1.59574 93 4.78723 93Z" fill="white"/>
<path d="M69.468 38.8118L68.8717 145.873C68.841 149.591 65.7106 152.58 61.8811 152.55C60.9104 152.543 59.9893 152.343 59.1533 151.987C56.6912 150.939 54.9778 148.542 55.0002 145.765L55.5977 38.7052L62.9223 26L69.468 38.8118Z" fill="white"/>
<path d="M102 171.745V10.5745L108.383 1L114.766 10.5745V171.745L108.383 176.532L102 171.745Z" stroke="white"/>
</svg>
