<svg width="661" height="611" viewBox="0 0 661 611" fill="none" xmlns="http://www.w3.org/2000/svg">
<path d="M565.667 283.852C565.667 149.5 450.231 40.5864 307.834 40.5864C165.436 40.5864 50 149.5 50 283.852C50 418.204 165.436 527.118 307.834 527.118C450.231 527.118 565.667 418.204 565.667 283.852Z" fill="#7B4AE2" fill-opacity="0.2"/>
<g filter="url(#filter0_d_21_4106)">
<circle cx="574.81" cy="167.81" r="35.8102" fill="#1B1C1F"/>
</g>
<g clip-path="url(#clip0_21_4106)">
<path fill-rule="evenodd" clip-rule="evenodd" d="M590.013 151H559.798C558.253 151 557 152.183 557 153.641V182.167C557 183.626 558.253 184.809 559.798 184.809H590.013C591.558 184.809 592.81 183.626 592.81 182.167V153.641C592.81 152.183 591.558 151 590.013 151ZM578.055 181.124V177.476C578.756 178.031 579.517 178.447 580.339 178.724C581.161 179.001 581.99 179.14 582.828 179.14C583.319 179.14 583.748 179.098 584.115 179.015C584.481 178.931 584.788 178.815 585.033 178.667C585.279 178.519 585.462 178.344 585.583 178.143C585.704 177.941 585.764 177.723 585.764 177.487C585.764 177.168 585.668 176.883 585.474 176.632C585.281 176.382 585.017 176.15 584.683 175.937C584.349 175.724 583.952 175.519 583.493 175.322C583.033 175.124 582.538 174.923 582.006 174.717C580.653 174.185 579.644 173.536 578.98 172.768C578.315 172.001 577.983 171.074 577.983 169.987C577.983 169.136 578.164 168.404 578.526 167.793C578.889 167.181 579.382 166.678 580.007 166.282C580.631 165.887 581.354 165.596 582.176 165.41C582.997 165.224 583.867 165.131 584.786 165.131C585.688 165.131 586.487 165.182 587.184 165.285C587.881 165.387 588.523 165.545 589.111 165.758V169.166C588.821 168.976 588.505 168.809 588.163 168.665C587.82 168.52 587.468 168.401 587.106 168.306C586.743 168.211 586.383 168.14 586.024 168.095C585.666 168.049 585.325 168.026 585.003 168.026C584.56 168.026 584.157 168.066 583.795 168.146C583.432 168.226 583.126 168.338 582.876 168.482C582.627 168.627 582.433 168.8 582.296 169.001C582.159 169.202 582.091 169.428 582.091 169.679C582.091 169.953 582.167 170.198 582.32 170.414C582.474 170.631 582.691 170.836 582.973 171.03C583.255 171.224 583.597 171.414 584 171.6C584.403 171.786 584.858 171.978 585.365 172.176C586.058 172.449 586.681 172.74 587.233 173.047C587.784 173.355 588.258 173.703 588.652 174.09C589.047 174.478 589.349 174.921 589.558 175.418C589.768 175.916 589.873 176.496 589.873 177.157C589.873 178.069 589.689 178.834 589.323 179.454C588.956 180.073 588.459 180.575 587.831 180.958C587.202 181.342 586.471 181.617 585.637 181.785C584.804 181.952 583.924 182.035 582.997 182.035C582.047 182.035 581.142 181.959 580.284 181.807C579.427 181.655 578.683 181.428 578.055 181.124ZM576.584 168.399H571.615V181.771H567.679V168.399H562.735V165.395H576.584V168.399Z" fill="#00FFFF" fill-opacity="0.67"/>
</g>
<g filter="url(#filter1_d_21_4106)">
<circle cx="85.8102" cy="239.794" r="35.8102" fill="#090E16"/>
</g>
<path d="M97.0928 237.958C96.6753 237.822 96.2426 237.694 95.7971 237.573C95.8704 237.29 95.9376 237.012 95.9973 236.738C96.9781 232.243 96.3368 228.622 94.1471 227.43C92.0474 226.287 88.6134 227.479 85.1454 230.328C84.8119 230.602 84.4774 230.893 84.1432 231.197C83.9204 230.995 83.698 230.801 83.4762 230.615C79.8416 227.568 76.1984 226.284 74.0108 227.48C71.9131 228.626 71.2919 232.031 72.1747 236.29C72.26 236.702 72.3596 237.122 72.4723 237.549C71.9567 237.687 71.4589 237.835 70.9827 237.991C66.7214 239.394 64 241.592 64 243.872C64 246.227 66.9214 248.589 71.3599 250.022C71.7101 250.135 72.0736 250.242 72.4481 250.343C72.3265 250.805 72.2208 251.258 72.132 251.699C71.2902 255.885 71.9476 259.209 74.0397 260.348C76.2007 261.525 79.8274 260.315 83.3589 257.401C83.638 257.171 83.9181 256.926 84.1987 256.67C84.5625 257.001 84.9256 257.314 85.2869 257.607C88.7075 260.387 92.086 261.509 94.1761 260.366C96.335 259.186 97.0366 255.616 96.1257 251.272C96.0561 250.94 95.9752 250.601 95.8843 250.256C96.1389 250.185 96.389 250.112 96.6328 250.035C101.247 248.592 104.249 246.259 104.249 243.872C104.249 241.584 101.44 239.371 97.0928 237.958ZM96.092 248.495C95.8719 248.563 95.6461 248.63 95.416 248.694C94.9066 247.172 94.2191 245.553 93.3778 243.88C94.1807 242.248 94.8416 240.649 95.3367 239.137C95.7484 239.249 96.148 239.368 96.5331 239.493C100.258 240.704 102.53 242.493 102.53 243.872C102.53 245.341 100.076 247.248 96.092 248.495ZM94.4389 251.587C94.8417 253.508 94.8992 255.245 94.6324 256.602C94.3927 257.822 93.9106 258.636 93.3146 258.961C92.0461 259.655 89.3336 258.754 86.4082 256.377C86.0728 256.104 85.7351 255.814 85.3962 255.506C86.5303 254.335 87.6637 252.973 88.77 251.461C90.7157 251.298 92.554 251.032 94.2211 250.668C94.3032 250.981 94.3761 251.287 94.4389 251.587ZM77.7218 258.842C76.4825 259.255 75.4955 259.267 74.8989 258.942C73.6293 258.251 73.1015 255.582 73.8214 252.002C73.9039 251.592 74.002 251.171 74.1152 250.741C75.764 251.085 77.5888 251.333 79.5392 251.482C80.6529 252.961 81.8191 254.321 82.9943 255.512C82.7375 255.746 82.4818 255.969 82.2274 256.179C80.6658 257.467 79.1009 258.382 77.7218 258.842ZM71.916 248.486C69.9534 247.852 68.3326 247.029 67.2216 246.131C66.2234 245.324 65.7194 244.523 65.7194 243.872C65.7194 242.489 67.9044 240.724 71.5486 239.524C71.9908 239.379 72.4537 239.242 72.9341 239.113C73.4377 240.659 74.0984 242.277 74.8957 243.912C74.0881 245.571 73.418 247.214 72.9094 248.779C72.567 248.686 72.2352 248.589 71.916 248.486ZM73.8621 235.979C73.1057 232.329 73.6081 229.576 74.8722 228.885C76.2187 228.149 79.1963 229.198 82.3345 231.829C82.5351 231.997 82.7365 232.173 82.9385 232.355C81.7691 233.541 80.6135 234.89 79.5097 236.361C77.6168 236.527 75.8048 236.793 74.1388 237.149C74.0341 236.751 73.9413 236.361 73.8621 235.979ZM91.2237 240.026C90.8255 239.377 90.4166 238.742 89.9998 238.126C91.284 238.279 92.5144 238.482 93.6698 238.731C93.323 239.781 92.8906 240.878 92.3816 242.003C92.0165 241.349 91.6304 240.689 91.2237 240.026ZM84.1437 233.515C84.9368 234.327 85.731 235.232 86.5122 236.215C85.725 236.18 84.9281 236.162 84.1245 236.162C83.3286 236.162 82.5375 236.179 81.7552 236.214C82.5371 235.24 83.3382 234.336 84.1437 233.515ZM77.0183 240.037C76.6205 240.689 76.2415 241.345 75.8822 242.002C75.3815 240.881 74.9531 239.779 74.6032 238.714C75.7516 238.472 76.9762 238.273 78.2522 238.123C77.8295 238.745 77.4173 239.384 77.0183 240.037V240.037ZM78.2889 249.738C76.9706 249.599 75.7276 249.411 74.5795 249.175C74.935 248.091 75.3728 246.965 75.8841 245.82C76.2444 246.477 76.6249 247.134 77.0252 247.786H77.0252C77.4329 248.451 77.8554 249.103 78.2889 249.738ZM84.1913 254.344C83.3764 253.514 82.5635 252.595 81.7696 251.608C82.5403 251.636 83.326 251.651 84.1245 251.651C84.9449 251.651 85.7559 251.633 86.5541 251.6C85.7704 252.605 84.979 253.525 84.1913 254.344ZM92.398 245.762C92.936 246.919 93.3895 248.039 93.7496 249.105C92.5826 249.356 91.3226 249.558 89.9951 249.709C90.4129 249.084 90.8253 248.439 91.2306 247.775C91.6406 247.104 92.0299 246.432 92.398 245.762ZM89.7412 246.964C89.1121 247.994 88.4661 248.977 87.8104 249.905C86.616 249.986 85.3821 250.028 84.1245 250.028C82.872 250.028 81.6536 249.991 80.4804 249.919C79.7982 248.979 79.1383 247.993 78.5131 246.973H78.5132C77.8897 245.956 77.3159 244.931 76.7959 243.911C77.3157 242.889 77.8881 241.863 78.508 240.848L78.5079 240.848C79.1294 239.831 79.7836 238.849 80.4595 237.915C81.6565 237.829 82.884 237.785 84.1245 237.785H84.1245C85.3706 237.785 86.5996 237.83 87.7963 237.916C88.4618 238.844 89.1116 239.822 89.7356 240.839C90.3667 241.869 90.9464 242.888 91.4707 243.888C90.948 244.906 90.3696 245.935 89.7412 246.964ZM93.2882 228.837C94.636 229.57 95.1602 232.53 94.3133 236.411C94.2593 236.658 94.1985 236.91 94.1324 237.166C92.4626 236.802 90.6493 236.532 88.7509 236.363C87.6449 234.877 86.4988 233.525 85.3485 232.355C85.6577 232.074 85.9666 231.806 86.2742 231.553C89.2456 229.112 92.0229 228.148 93.2882 228.837ZM84.1245 240.479C86.1095 240.479 87.7186 241.998 87.7186 243.872C87.7186 245.746 86.1095 247.266 84.1245 247.266C82.1396 247.266 80.5304 245.746 80.5304 243.872C80.5304 241.998 82.1396 240.479 84.1245 240.479Z" fill="#00F0FF" fill-opacity="0.79"/>
<g filter="url(#filter2_d_21_4106)">
<circle cx="85.8102" cy="468.98" r="35.8102" fill="#090E16"/>
</g>
<g clip-path="url(#clip1_21_4106)">
<path fill-rule="evenodd" clip-rule="evenodd" d="M79.8885 451.074C76.5939 451.074 73.9201 453.748 73.9201 457.043C73.9201 460.337 76.5939 463.011 79.8885 463.011C76.5939 463.011 73.9201 465.685 73.9201 468.98C73.9201 472.274 76.5939 474.948 79.8885 474.948C76.5939 474.948 73.9201 477.622 73.9201 480.916C73.9201 484.211 76.5939 486.885 79.8885 486.885C83.183 486.885 85.8568 484.211 85.8568 480.916L85.8568 468.98C85.8568 472.274 88.5307 474.948 91.8252 474.948C95.1198 474.948 97.7936 472.274 97.7936 468.98C97.7936 465.685 95.1198 463.011 91.8252 463.011C95.1198 463.011 97.7936 460.337 97.7936 457.043C97.7936 453.748 95.1198 451.074 91.8252 451.074H79.8885ZM91.8252 463.011H85.8568L85.8568 468.98C85.8568 465.685 88.5307 463.011 91.8252 463.011Z" fill="#00E0FF" fill-opacity="0.58"/>
</g>
<g filter="url(#filter3_d_21_4106)">
<circle cx="506.81" cy="367.81" r="35.8102" fill="#090E16"/>
</g>
<g clip-path="url(#clip2_21_4106)">
<path fill-rule="evenodd" clip-rule="evenodd" d="M509.07 385L498.34 374.247L504.271 368.16L521 385H509.07Z" fill="#02539A"/>
<path fill-rule="evenodd" clip-rule="evenodd" d="M498.207 374.255L508.844 363.527H520.802L504.254 380.216L498.207 374.255Z" fill="#45D1FD" fill-opacity="0.85"/>
<path fill-rule="evenodd" clip-rule="evenodd" d="M489 364.898L495.039 370.984L520.801 345H508.781L489 364.898Z" fill="#45D1FD"/>
</g>
<g filter="url(#filter4_f_21_4106)">
<path d="M564.772 305.148C564.772 446.062 450.538 560.296 309.624 560.296C168.71 560.296 54.4763 446.062 54.4763 305.148C54.4763 164.234 168.71 50 309.624 50C450.538 50 564.772 164.234 564.772 305.148Z" fill="#00FFFF" fill-opacity="0.2"/>
</g>
<g filter="url(#filter5_i_21_4106)">
<path fill-rule="evenodd" clip-rule="evenodd" d="M262.972 372.836C299.728 391.333 340.944 389.278 373.238 372.835V413.356L373.603 413.346V437.138H262.972V372.836Z" fill="#BB7D52"/>
<path fill-rule="evenodd" clip-rule="evenodd" d="M262.972 406.599C299.727 425.097 340.944 423.041 373.238 406.599V432.439L398.071 431.854L398.379 431.865C398.379 494.149 240.663 503.472 240.663 431.772L241.278 431.746L262.972 431.85V406.599V406.599Z" fill="#D08B5B"/>
<path fill-rule="evenodd" clip-rule="evenodd" d="M198.404 150.624C286.117 97.8964 398.333 116.647 436.246 151.417C447.207 176.319 447.981 200.338 444.757 226.121C452.162 221.105 460.967 222.253 467.906 226.925C470.716 248.32 478.246 290.642 444.506 292.478C404.337 440.846 243.337 440.373 191.287 292.925C157.847 291.836 166.864 249.063 168.953 228.522C176.976 222.76 186.137 225.66 191.824 228.238L198.404 150.624Z" fill="#D08B5B"/>
<path fill-rule="evenodd" clip-rule="evenodd" d="M189.522 242.01C189.982 242.771 190.444 246.247 190.444 249.832C190.444 257.545 192.976 268.41 196.086 274.058C204.839 290.137 227.64 298.285 255.28 295.243C268.869 293.613 276.816 291.114 285.453 285.682C298.352 277.535 304.34 267.106 305.261 250.702C305.952 240.706 305.952 240.706 309.407 239.62C313.899 238.1 325.07 238.1 329.677 239.62C333.246 240.815 333.246 240.815 333.246 248.529C333.246 257.437 335.665 268.084 338.889 274.059C347.641 290.137 370.444 298.285 397.968 295.243C411.673 293.613 419.619 291.114 428.257 285.683C440.959 277.659 446.961 267.105 448.24 250.702L450.837 207.65H189.522V242.01ZM295.701 247.008C295.586 232.45 291.325 226.693 277.507 222.456C273.13 221.152 266.22 220.609 250.327 220.283C231.901 220.066 227.871 220.283 220.5 222.13C211.057 224.52 205.298 228.105 202.304 233.319C199.08 238.86 199.54 256.786 202.995 264.281C208.408 275.797 218.542 281.012 238.235 282.532C263.917 284.38 285.568 276.122 293.169 261.456C295.357 257.22 295.817 254.722 295.701 247.008ZM438.506 247.008C438.39 232.45 434.13 226.693 420.309 222.456C415.933 221.152 409.023 220.609 393.13 220.283C374.704 220.066 370.674 220.283 363.303 222.13C353.86 224.52 348.102 228.105 345.107 233.319C341.883 238.86 342.343 256.786 345.798 264.281C351.21 275.797 361.345 281.012 381.038 282.532C406.719 284.38 428.371 276.122 435.972 261.456C438.159 257.22 438.621 254.722 438.506 247.008Z" fill="#A66F49"/>
<path d="M184.684 147.64C183.303 161.546 192.224 200.326 193.837 204.346L195.51 186.751C196.201 171.107 198.389 157.854 200.923 153.29C203.802 148.184 226.604 137.212 249.177 130.042C277.161 121.243 308.601 117.875 344.072 120.156C374.475 122.003 382.709 123.562 416.337 140.618L436.337 151.476L440.837 177.911L445.337 204.346C448.101 196.85 455.943 145.896 451.337 137.314L428.257 103.326H405.837L416.337 89.6364L381.038 94.829C373.038 94.829 373.304 82.7129 381.038 79.2512L345.798 84.9159L345.107 63.6734L327.837 75.4748L305.262 81.6115L323.837 66.5057L293.169 69.338L270.837 81.6115L293.169 59.4249L258.337 69.338L238.235 84.9159L223.337 111.823L198.837 121.736L184.684 147.64Z" fill="#3E291B"/>
<path fill-rule="evenodd" clip-rule="evenodd" d="M240.423 231.509C234.319 234.224 227.294 241.068 227.294 244.328C223.724 247.044 227.294 246.826 227.294 244.328C236.622 237.375 261.844 237.158 271.978 244.002C273.935 245.197 276.008 246.283 276.7 246.283C279.118 246.283 277.966 242.372 274.282 238.243C269.444 232.594 260.807 228.901 252.63 228.901C248.369 228.901 244.339 229.77 240.423 231.509Z" fill="#533824"/>
<path fill-rule="evenodd" clip-rule="evenodd" d="M374.013 231.509C367.91 234.224 360.885 241.068 360.885 244.328C360.885 246.826 362.727 246.826 366.298 244.11C375.626 237.158 395.434 237.158 405.568 244.002C407.526 245.197 409.599 246.283 410.29 246.283C412.709 246.283 411.557 242.372 407.872 238.243C403.035 232.594 394.398 228.901 386.221 228.901C381.96 228.901 377.929 229.77 374.014 231.508L374.013 231.509V231.509Z" fill="#533824"/>
<path fill-rule="evenodd" clip-rule="evenodd" d="M292.592 283.437C293.86 288.108 297.545 291.802 303.994 294.736C309.176 297.125 311.825 297.669 319.426 297.669C327.026 297.669 329.675 297.125 334.858 294.736C341.307 291.802 344.992 288.109 346.259 283.437L346.835 281.047H319.426H292.016L292.592 283.437V283.437Z" fill="#AF754C"/>
<path fill-rule="evenodd" clip-rule="evenodd" d="M278.837 327.109C280.334 336.126 296.047 345.36 305.03 349.706C311.594 352.965 323.687 353.616 330.597 351.118C340.962 347.316 341.224 346.044 342.837 336.049C342.837 336.049 326.686 336.049 316.337 336.049C308.337 336.049 309.326 335.935 305.03 335.105C300.735 334.276 292.837 332.273 292.837 332.273L278.837 327.109Z" fill="#3E291B"/>
<path fill-rule="evenodd" clip-rule="evenodd" d="M241 430.932C206.561 434 170.473 428.237 144.439 447.803C122.036 464.569 116.401 496.892 100 515.869C133.418 547.576 178.356 574.442 227.359 589.28C260.047 599.116 282.346 602.288 317.369 602.288C352.393 602.288 374.691 599.116 407.38 589.28C456.817 574.821 498.461 551.127 536 517.118C510.289 486.768 509.751 456.196 468.325 437.506C450.929 429.574 420.454 434.544 404.811 433.063L397.443 432.456L397.093 432.449L398.5 436.125C394.998 460.239 358.581 481.914 317.369 481.914C276.159 481.914 244.872 461.832 240.668 437.4C243.352 437.083 239.851 432.535 240.668 437.4L241 430.932Z" fill="white"/>
</g>
<path fill-rule="evenodd" clip-rule="evenodd" d="M189 224.644C189.46 225.405 189 243.098 189 246.684C189 254.397 191.533 265.261 194.643 270.91C203.395 286.988 226.198 295.136 253.838 292.094C267.427 290.464 275.373 287.966 284.01 282.534C296.908 274.386 302.897 263.957 303.819 247.553C304.509 237.558 304.509 237.558 307.965 236.472C312.456 234.951 323.627 234.951 328.233 236.472C331.804 237.667 331.804 237.667 331.804 245.381C331.804 254.289 334.222 264.935 337.447 270.91C346.199 286.989 369.001 295.136 396.525 292.095C410.23 290.465 418.176 287.967 426.814 282.535C439.517 274.51 445.518 263.957 446.797 247.553L446.852 210.483H189V224.644ZM294.259 243.859C294.144 229.302 289.883 223.544 276.063 219.307C271.687 218.003 264.777 217.461 248.885 217.134C230.459 216.917 226.428 217.134 219.057 218.981C209.614 221.371 203.856 224.956 200.861 230.171C197.637 235.711 198.097 253.637 201.553 261.132C206.965 272.648 217.099 277.863 236.792 279.384C262.474 281.231 284.125 272.974 291.726 258.308C293.914 254.072 294.374 251.573 294.259 243.859ZM437.062 243.859C436.947 229.302 432.686 223.544 418.866 219.307C414.49 218.003 407.58 217.461 391.688 217.134C373.262 216.917 369.231 217.134 361.86 218.981C352.417 221.371 346.659 224.956 343.664 230.171C340.44 235.711 340.9 253.637 344.356 261.132C349.768 272.648 359.903 277.863 379.595 279.384C405.277 281.231 426.928 272.974 434.529 258.308C436.717 254.072 437.177 251.573 437.062 243.859Z" fill="#090E16"/>
<path d="M187.219 509.809C195.122 509.223 200.279 508.93 202.688 508.93C205.109 508.93 207.017 509.158 208.41 509.613C209.816 510.056 211.073 510.674 212.18 511.469C214.328 512.992 215.949 515.017 217.043 517.543C218.15 520.069 218.703 522.628 218.703 525.219C218.703 527.81 218.28 530.076 217.434 532.016C216.6 533.943 215.441 535.57 213.957 536.898C210.923 539.646 206.997 541.013 202.18 541H187.219V509.809ZM199.367 519.711V531.605C200.057 531.02 200.806 530.44 201.613 529.867C204.712 527.641 206.262 525.31 206.262 522.875C206.262 521.69 205.91 520.596 205.207 519.594C204.504 518.578 203.586 518.07 202.453 518.07C201.333 518.07 200.305 518.617 199.367 519.711ZM234.816 509.809L239.68 519.594L244.211 509.809H255.656L240.324 540.961C239.986 541.599 239.393 541.918 238.547 541.918C237.714 541.918 237.134 541.599 236.809 540.961L220.656 509.809H234.816Z" fill="black"/>
<path d="M196 210.5L186 154L198.5 123L224.5 112.5L239 88L260.5 70.5L295.5 60L273 81.5L295.5 70.5L324.5 68.5L309 83.5M447 203.5C452.408 179.772 455.123 166.507 454.5 143.5L430.5 103.5L408 106.5L419 92L382.5 97C380.951 97.6481 377.5 94 377.5 89.5C377.5 85 382.5 81.5 382.5 81.5L349 88L346 64L330.5 78L309 81.5" stroke="white"/>
<defs>
<filter id="filter0_d_21_4106" x="489" y="86" width="171.62" height="171.62" filterUnits="userSpaceOnUse" color-interpolation-filters="sRGB">
<feFlood flood-opacity="0" result="BackgroundImageFix"/>
<feColorMatrix in="SourceAlpha" type="matrix" values="0 0 0 0 0 0 0 0 0 0 0 0 0 0 0 0 0 0 127 0" result="hardAlpha"/>
<feOffset dy="4"/>
<feGaussianBlur stdDeviation="25"/>
<feComposite in2="hardAlpha" operator="out"/>
<feColorMatrix type="matrix" values="0 0 0 0 0 0 0 0 0 0 0 0 0 0 0 0 0 0 0.5 0"/>
<feBlend mode="normal" in2="BackgroundImageFix" result="effect1_dropShadow_21_4106"/>
<feBlend mode="normal" in="SourceGraphic" in2="effect1_dropShadow_21_4106" result="shape"/>
</filter>
<filter id="filter1_d_21_4106" x="0" y="157.984" width="171.62" height="171.62" filterUnits="userSpaceOnUse" color-interpolation-filters="sRGB">
<feFlood flood-opacity="0" result="BackgroundImageFix"/>
<feColorMatrix in="SourceAlpha" type="matrix" values="0 0 0 0 0 0 0 0 0 0 0 0 0 0 0 0 0 0 127 0" result="hardAlpha"/>
<feOffset dy="4"/>
<feGaussianBlur stdDeviation="25"/>
<feComposite in2="hardAlpha" operator="out"/>
<feColorMatrix type="matrix" values="0 0 0 0 0 0 0 0 0 0 0 0 0 0 0 0 0 0 0.5 0"/>
<feBlend mode="normal" in2="BackgroundImageFix" result="effect1_dropShadow_21_4106"/>
<feBlend mode="normal" in="SourceGraphic" in2="effect1_dropShadow_21_4106" result="shape"/>
</filter>
<filter id="filter2_d_21_4106" x="0" y="387.169" width="171.62" height="171.62" filterUnits="userSpaceOnUse" color-interpolation-filters="sRGB">
<feFlood flood-opacity="0" result="BackgroundImageFix"/>
<feColorMatrix in="SourceAlpha" type="matrix" values="0 0 0 0 0 0 0 0 0 0 0 0 0 0 0 0 0 0 127 0" result="hardAlpha"/>
<feOffset dy="4"/>
<feGaussianBlur stdDeviation="25"/>
<feComposite in2="hardAlpha" operator="out"/>
<feColorMatrix type="matrix" values="0 0 0 0 0 0 0 0 0 0 0 0 0 0 0 0 0 0 0.5 0"/>
<feBlend mode="normal" in2="BackgroundImageFix" result="effect1_dropShadow_21_4106"/>
<feBlend mode="normal" in="SourceGraphic" in2="effect1_dropShadow_21_4106" result="shape"/>
</filter>
<filter id="filter3_d_21_4106" x="421" y="286" width="171.62" height="171.62" filterUnits="userSpaceOnUse" color-interpolation-filters="sRGB">
<feFlood flood-opacity="0" result="BackgroundImageFix"/>
<feColorMatrix in="SourceAlpha" type="matrix" values="0 0 0 0 0 0 0 0 0 0 0 0 0 0 0 0 0 0 127 0" result="hardAlpha"/>
<feOffset dy="4"/>
<feGaussianBlur stdDeviation="25"/>
<feComposite in2="hardAlpha" operator="out"/>
<feColorMatrix type="matrix" values="0 0 0 0 0 0 0 0 0 0 0 0 0 0 0 0 0 0 0.5 0"/>
<feBlend mode="normal" in2="BackgroundImageFix" result="effect1_dropShadow_21_4106"/>
<feBlend mode="normal" in="SourceGraphic" in2="effect1_dropShadow_21_4106" result="shape"/>
</filter>
<filter id="filter4_f_21_4106" x="4.47626" y="0" width="610.296" height="610.296" filterUnits="userSpaceOnUse" color-interpolation-filters="sRGB">
<feFlood flood-opacity="0" result="BackgroundImageFix"/>
<feBlend mode="normal" in="SourceGraphic" in2="BackgroundImageFix" result="shape"/>
<feGaussianBlur stdDeviation="25" result="effect1_foregroundBlur_21_4106"/>
</filter>
<filter id="filter5_i_21_4106" x="100" y="59.4249" width="436" height="546.864" filterUnits="userSpaceOnUse" color-interpolation-filters="sRGB">
<feFlood flood-opacity="0" result="BackgroundImageFix"/>
<feBlend mode="normal" in="SourceGraphic" in2="BackgroundImageFix" result="shape"/>
<feColorMatrix in="SourceAlpha" type="matrix" values="0 0 0 0 0 0 0 0 0 0 0 0 0 0 0 0 0 0 127 0" result="hardAlpha"/>
<feOffset dy="4"/>
<feGaussianBlur stdDeviation="2"/>
<feComposite in2="hardAlpha" operator="arithmetic" k2="-1" k3="1"/>
<feColorMatrix type="matrix" values="0 0 0 0 0 0 0 0 0 0 0 0 0 0 0 0 0 0 0.25 0"/>
<feBlend mode="normal" in2="shape" result="effect1_innerShadow_21_4106"/>
</filter>
<clipPath id="clip0_21_4106">
<rect width="35.8102" height="33.8088" fill="white" transform="translate(557 151)"/>
</clipPath>
<clipPath id="clip1_21_4106">
<rect width="35.8102" height="35.8102" fill="white" transform="translate(67.9051 451.074)"/>
</clipPath>
<clipPath id="clip2_21_4106">
<rect width="32" height="40" fill="white" transform="translate(489 345)"/>
</clipPath>
</defs>
</svg>
