<svg width="104" height="121" viewBox="0 0 104 121" fill="none" xmlns="http://www.w3.org/2000/svg">
<path d="M91.5383 56.6362C79.0654 56.4084 66.9334 58.2666 55.3492 62.4537C55.3492 63.9335 55.4169 65.3041 55.3379 66.6672C54.7429 77.0521 49.7783 84.7711 40.9315 90.0766C37.4937 92.1381 33.7735 93.5878 29.8537 94.3427C23.575 95.5514 17.7556 97.9161 12.2035 100.977C9.24768 102.606 6.41799 104.46 3.51864 106.192C3.07433 106.458 2.58106 106.729 2.08027 106.801C0.839572 106.979 -0.124366 106.13 0.0130703 104.891C0.15239 103.624 0.466799 102.372 0.775561 101.132C3.31343 90.9369 6.52907 80.9794 11.2923 71.5791C13.4781 67.264 16.0028 63.1578 19.337 59.6221C23.7839 54.9079 29.1572 51.7393 35.5828 50.6699C43.829 49.2993 50.9945 53.4507 54.0388 59.3717C54.0934 59.479 54.18 59.5694 54.3062 59.7426C64.8097 55.9415 75.6822 54.0512 87.0744 53.5956C86.6546 53.4055 86.4569 53.3038 86.2517 53.2228C82.2434 51.6263 78.2389 50.0242 74.2194 48.4521C73.9031 48.3278 73.3835 48.2732 73.1538 48.4465C66.6792 53.3038 59.8733 53.2191 52.9111 49.7361C47.1256 46.8405 42.7973 42.3221 39.3218 36.947C34.9144 30.1297 32.1883 22.6178 30.5202 14.7312C29.6674 10.7004 29.2042 6.58667 28.5867 2.50499C28.4511 1.6013 28.5472 0.720202 29.4829 0.230702C30.4581 -0.279508 31.2526 0.134685 32.0716 0.714554C37.7121 4.69833 43.5597 8.31687 50.1887 10.4405C52.5063 11.1823 54.9312 11.5796 57.2639 12.2799C63.8571 14.2605 69.539 17.6456 73.536 23.4085C76.9851 28.3826 78.6117 33.8914 78.0394 39.98C77.8342 42.1526 77.0491 44.0918 75.6201 45.9199C77.0434 46.5543 78.3914 47.1926 79.7677 47.7612C87.0481 50.7678 94.5845 52.8463 102.375 54.0079C103.22 54.1341 103.608 54.6782 103.62 55.5047C103.631 56.2992 103.074 56.8715 102.228 56.9769C94.9008 57.8825 88.285 60.5842 82.3056 64.888C81.8236 65.2344 81.368 65.6185 80.9048 65.9894C80.8615 66.0252 80.8408 66.0892 80.7938 66.1701C84.819 70.4909 85.0053 75.77 84.5102 81.2241C84.1562 85.1213 82.8572 88.7361 81.1213 92.1833C76.7196 100.923 72.235 109.623 67.7806 118.336C67.2666 119.341 66.5211 120.085 65.318 120.094C64.1188 120.104 63.3544 119.386 62.8235 118.383C58.9922 111.133 56.2397 103.521 55.0969 95.365C54.5471 91.4434 54.1725 87.4879 54.7655 83.5681C55.6899 77.4587 57.7327 71.7598 62.3358 67.3769C66.6434 63.2764 71.7738 62.5196 77.3428 64.2535C77.9641 64.4475 78.3425 64.3816 78.8282 63.9674C82.3432 60.9758 86.3138 58.7448 90.5838 57.0221C90.9019 56.8941 91.2182 56.7642 91.5364 56.6362H91.5383ZM3.30967 102.531L3.5563 102.621C5.46723 101.493 7.35745 100.33 9.29098 99.2434C14.57 96.2857 20.0148 93.665 25.9246 92.2605C29.641 91.3775 33.3725 90.5981 36.8367 88.9413C45.7606 84.6732 51.2506 77.8409 52.3708 67.8344C52.5214 66.4883 52.3915 65.1102 52.3915 63.6304C51.9471 63.7791 51.6742 63.8356 51.4332 63.958C47.4099 65.9706 43.2849 67.8099 39.3934 70.0541C33.3781 73.5239 27.8863 77.7223 23.2286 82.9336C22.628 83.6057 21.8184 83.666 21.1388 83.1407C20.557 82.6907 20.4478 81.8002 20.9844 81.1243C21.5285 80.439 22.1328 79.7989 22.7541 79.1833C30.5598 71.4511 39.7096 65.7729 49.7877 61.5161C50.3243 61.2902 50.8589 61.0567 51.3616 60.8402C51.3522 60.6783 51.3635 60.6105 51.3409 60.5578C51.2618 60.3884 51.179 60.2189 51.083 60.0589C49.7933 57.9089 48.0086 56.2766 45.8058 55.115C40.7075 52.4284 35.6091 52.9969 30.5334 55.2034C24.441 57.8524 20.0807 62.3821 16.6617 67.9511C12.3108 75.0376 9.27592 82.6964 6.77758 90.583C5.52559 94.5348 4.45811 98.5468 3.3059 102.531H3.30967ZM72.9354 44.5474C74.3587 43.0243 75.1061 41.2998 75.2097 39.3323C75.5599 32.6902 73.3797 26.9593 68.7765 22.1923C65.0413 18.3234 60.3703 16.0679 55.2249 14.7143C53.0843 14.1513 50.891 13.7466 48.7974 13.0424C43.0288 11.1051 37.7818 8.1286 32.7606 4.73222C32.433 4.51006 32.096 4.30108 31.5576 3.95279C31.9059 6.21578 32.1676 8.25662 32.5403 10.2767C33.9279 17.7887 36.044 25.0653 39.6739 31.8336C43.1286 38.2761 47.6358 43.7454 54.2629 47.1662C58.5272 49.3671 62.959 50.0938 67.566 48.3184C68.6127 47.9155 69.5767 47.298 70.727 46.7031C70.277 46.4357 70.0586 46.3171 69.8515 46.1816C66.2311 43.7755 62.5015 41.5163 59.0223 38.9219C54.5622 35.5971 50.6575 31.6547 47.4456 27.076C46.8507 26.2288 46.99 25.3778 47.7469 24.8676C48.4058 24.4214 49.2304 24.5927 49.7858 25.3797C52.4574 29.1714 55.7088 32.4116 59.2313 35.4013C63.4259 38.9614 68.0065 41.9361 72.9335 44.5512L72.9354 44.5474ZM78.3877 68.0396C77.0265 69.7246 75.654 71.2685 74.4566 72.9384C71.1883 77.4889 69.3169 82.6286 68.2531 88.096C68.1684 88.529 67.8578 89.0768 67.4963 89.2519C67.0934 89.4477 66.4326 89.4402 66.0259 89.2369C65.303 88.8754 65.3406 88.0884 65.4686 87.3975C66.6792 80.9304 69.0815 74.9774 73.182 69.7736C73.9671 68.7776 74.8068 67.8269 75.6841 66.7801C73.6772 66.221 71.7474 66.1362 69.8327 66.5429C66.4326 67.2659 63.9173 69.2935 62.0384 72.1477C58.1393 78.0725 56.9306 84.6111 57.5783 91.5959C58.1506 97.7786 59.5683 103.751 61.9009 109.495C62.8837 111.914 64.0472 114.26 65.2371 116.879C66.5192 114.491 67.7072 112.409 68.7765 110.268C72.4854 102.834 76.2734 95.4347 79.7903 87.9096C81.9027 83.3892 82.3263 78.5206 81.4188 73.5804C81.0385 71.5038 80.2195 69.655 78.3877 68.0415V68.0396Z" fill="white"/>
</svg>
