<svg width="114" height="127" viewBox="0 0 114 127" fill="none" xmlns="http://www.w3.org/2000/svg">
<path d="M101.843 55.4227C89.8543 58.871 77.6547 60.2161 65.3815 59.1699C64.9985 57.7405 64.7092 56.3991 64.2801 55.1029C61.0176 45.2258 54.2243 39.0547 44.3058 36.2198C40.4516 35.1183 36.4829 34.6809 32.5013 34.9661C26.1237 35.4237 19.8905 34.6458 13.7353 33.1258C10.4587 32.3178 7.2455 31.2589 3.99666 30.3363C3.49877 30.1948 2.95215 30.0606 2.4499 30.1211C1.20519 30.2695 0.493857 31.3391 0.947238 32.5002C1.40975 33.688 2.03748 34.816 2.65684 35.9345C7.74684 45.125 13.4301 53.911 20.464 61.7582C23.6922 65.3605 27.1936 68.6733 31.3293 71.2256C36.8448 74.6283 42.8551 76.2982 49.3385 75.668C57.6585 74.8577 63.5054 68.9932 64.9135 62.486C64.9384 62.3682 64.9987 62.2585 65.0757 62.0585C76.2052 63.0116 87.1965 62.0234 98.3184 59.515C97.9621 59.8073 97.7974 59.9567 97.6202 60.088C94.1617 62.6676 90.7083 65.2516 87.2326 67.8104C86.9593 68.0123 86.4715 68.1995 86.2048 68.0916C78.6937 65.0756 72.1416 66.9189 66.3181 72.0851C61.4791 76.3795 58.4677 81.8642 56.5019 87.9557C54.0091 95.6813 53.3201 103.643 53.7501 111.692C53.9695 115.807 54.5869 119.9 55.0468 124.003C55.1498 124.91 55.4706 125.737 56.5011 125.967C57.5751 126.208 58.2353 125.602 58.8763 124.83C63.2936 119.522 68.0054 114.513 73.8589 110.746C75.9055 109.43 78.145 108.419 80.2169 107.138C86.0728 103.519 90.685 98.7786 93.0542 92.1775C95.0984 86.4802 95.2439 80.7382 93.1152 75.0051C92.3547 72.9597 91.0944 71.2898 89.241 69.8938C90.4516 68.9126 91.5885 67.9472 92.7707 67.0418C99.0248 62.2533 105.766 58.295 112.991 55.1566C113.775 54.816 114.009 54.1901 113.806 53.3888C113.611 52.6185 112.924 52.2099 112.081 52.3268C104.769 53.3486 97.6789 52.4513 90.7893 49.8417C90.2341 49.6318 89.6946 49.3787 89.1513 49.1404C89.1002 49.117 89.0636 49.0605 88.9972 48.9945C91.767 43.7792 90.5807 38.6317 88.6907 33.4916C87.3402 29.8188 85.1498 26.6634 82.5809 23.783C76.0672 16.4805 69.4838 9.23776 62.926 1.97446C62.1693 1.13638 61.2567 0.61101 60.0922 0.913285C58.9314 1.21459 58.3787 2.1053 58.1256 3.21199C56.3014 11.2068 55.6127 19.2716 56.6197 27.4452C57.1037 31.3756 57.7656 35.2933 59.353 38.926C61.8271 44.5879 65.2752 49.5639 70.8559 52.6061C76.078 55.452 81.2294 54.8552 86.1599 51.739C86.7098 51.3909 87.0924 51.3566 87.6688 51.6309C91.8383 53.6109 96.251 54.7382 100.821 55.297C101.162 55.3383 101.501 55.3819 101.841 55.4232L101.843 55.4227ZM4.74255 33.9274L4.95739 33.7763C7.09509 34.371 9.22204 35.0056 11.3708 35.5545C17.2355 37.0451 23.1731 38.1673 29.245 37.9944C33.0633 37.8854 36.8694 37.6725 40.6443 38.3762C50.3688 40.1891 57.44 45.3677 61.1119 54.7434C61.6058 56.0046 61.837 57.3694 62.22 58.7988C61.7524 58.7701 61.4741 58.7862 61.2096 58.7304C56.8025 57.8277 52.342 57.1186 48.0022 55.9581C41.2939 54.1634 34.9026 51.5294 29.0548 47.7012C28.3007 47.2074 27.5031 47.3588 26.9826 48.0421C26.5371 48.6272 26.6621 49.5157 27.3553 50.0297C28.0583 50.5508 28.8077 51.0127 29.5672 51.4465C39.1081 56.895 49.4158 60.0116 60.2522 61.5149C60.829 61.5943 61.4058 61.6814 61.9474 61.7604C61.9802 61.9192 62.0087 61.9818 62.0005 62.0386C61.968 62.2227 61.9318 62.4078 61.8805 62.5872C61.1913 64.9978 59.8898 67.0364 58.0627 68.7286C53.8335 72.6432 48.7617 73.4135 43.2878 72.5959C36.7174 71.614 31.3333 68.3671 26.5895 63.8728C20.5527 58.1539 15.639 51.5415 11.1846 44.5703C8.95244 41.0772 6.88294 37.4782 4.73891 33.9284L4.74255 33.9274ZM87.003 71.9144C88.772 73.0172 89.9403 74.4895 90.5495 76.3631C92.6069 82.6883 91.9843 88.7882 88.7718 94.5841C86.1651 99.288 82.2371 102.676 77.6174 105.315C75.6954 106.413 73.6815 107.371 71.8416 108.593C66.771 111.958 62.4731 116.191 58.5021 120.771C58.2431 121.07 57.9717 121.359 57.5417 121.835C57.2925 119.559 57.017 117.52 56.8543 115.472C56.2503 107.857 56.411 100.281 58.1654 92.8037C59.835 85.6865 62.773 79.2371 68.2889 74.2176C71.8383 70.988 75.931 69.139 80.8405 69.6615C81.9559 69.7798 83.0468 70.1268 84.3119 70.4037C83.9465 70.7784 83.7662 70.9495 83.6013 71.134C80.7269 74.3952 77.7092 77.5427 75.02 80.9491C71.5724 85.315 68.8211 90.1337 66.9037 95.3877C66.5483 96.36 66.9031 97.1459 67.7662 97.4429C68.5182 97.7033 69.2704 97.3244 69.6032 96.4205C71.2023 92.0665 73.5043 88.0953 76.133 84.2957C79.2633 79.7712 82.9179 75.7124 87.0002 71.9112L87.003 71.9144ZM86.1892 47.8115C84.4383 46.5362 82.7131 45.4002 81.1242 44.097C76.7895 40.5475 73.6516 36.0673 71.2091 31.0616C71.0152 30.6652 70.5733 30.2164 70.1788 30.1408C69.739 30.056 69.1026 30.2343 68.7625 30.536C68.1577 31.0722 68.3977 31.8226 68.7002 32.4569C71.5434 38.3903 75.4046 43.5187 80.7122 47.4839C81.7283 48.2427 82.7854 48.9438 83.9038 49.7278C82.11 50.7873 80.2679 51.3686 78.3132 51.4714C74.8418 51.6531 71.8874 50.3455 69.3338 48.0749C64.0341 43.3611 61.1743 37.3582 59.9921 30.4437C58.9447 24.3235 58.7684 18.1882 59.5349 12.0361C59.8581 9.44489 60.3748 6.87786 60.8463 4.04031C62.7026 6.01439 64.389 7.71822 65.976 9.50913C71.4828 15.7306 77.0567 21.8971 82.4013 28.2555C85.6117 32.0751 87.281 36.6683 87.683 41.675C87.8532 43.7793 87.5406 45.777 86.1888 47.8096L86.1892 47.8115Z" fill="white"/>
</svg>
